<?xml version="1.0" standalone="no"?><!DOCTYPE svg PUBLIC "-//W3C//DTD SVG 1.1//EN" "http://www.w3.org/Graphics/SVG/1.1/DTD/svg11.dtd"><svg t="1564476534848" class="icon" viewBox="0 0 1024 1024" version="1.1" xmlns="http://www.w3.org/2000/svg" p-id="6103" xmlns:xlink="http://www.w3.org/1999/xlink" width="256" height="256"><defs><style type="text/css"></style></defs><path d="M742.341 124.43c113.128 0 198.447 85.095 198.447 197.944 0 154.204-149.003 293.446-412.344 526.274l-1.909 1.691-1.809 1.803-12.767 12.772-12.474-12.564-1.93-1.939-2.062-1.813C239.874 623.041 83.212 476.948 83.212 322.374c0-112.849 85.319-197.944 198.458-197.944 62.09 0 125.937 29.811 166.605 77.792l63.187 74.563 63.521-74.283c41.187-48.155 105.308-78.072 167.358-78.072m0-83.206c-86.965 0-173.949 40.968-230.595 107.202C455.608 82.192 368.645 41.224 281.67 41.224 122.886 41.224 0.006 163.6 0.006 322.374c0 194.694 173.949 353.458 440.438 588.613l71.302 71.789 71.811-71.789c265.98-235.155 440.438-393.919 440.438-588.613-0.001-158.774-122.881-281.15-281.654-281.15z" fill="#e6e6e6" p-id="6104"></path></svg>